<?xml version="1.0" encoding="UTF-8"?>
<svg id="Layer_1" xmlns="http://www.w3.org/2000/svg" version="1.1" viewBox="0 0 37 37">
  <defs>
    <style>
      .st0 {
        fill: #020203;
      }

      .st1 {
        fill: #ae2d24;
      }
    </style>
  </defs>
  <g id="PAW">
    <path class="st0" d="M22.3,19.9c-1.6-1.1-3.4-1.3-5.1-.7-1.2.4-2.2.9-3.2,1.7-3,2.3-6.4,6.2-7,10-.3,1.8.4,3.7,1.9,4.7,2.1,1.3,4.8.6,7.1-.1,4.4-1.5,6.4.9,9.9.6,2.1-.1,3.5-1.6,3.7-3.6,0-1,0-1.8-.3-2.8-1.1-3.5-3.8-7.7-6.9-9.8ZM26,30.8c-.4.4-.8.8-1.3,1.1-1.2.7-2.4,1.2-3.8,1.5-1.3-1.7-3-4.6-2.4-6.5.2-.7.7-1.3,1.3-1.5,1.3-.5,2.6.3,3.2,1.8.5-.2,1-.4,1.6-.4,1,0,1.9.6,2.2,1.4.4,1,0,1.9-.7,2.6Z"/>
    <path class="st0" d="M13.8,14c1.6.8,3.4.2,4.3-1.3.6-1.1.9-2.2.9-3.4.1-2.8-.3-5.6-2.4-7.5-.9-.8-2.1-1.2-3.3-1-1,.2-1.8,1-2.3,1.9-1.7,3.2-.8,9.6,2.9,11.3Z"/>
    <path class="st0" d="M10.5,22c1.7-1.7,1.4-5.2.7-7.5-1-2.9-3.6-5.3-6.5-4.3-.7.2-1.2.8-1.5,1.4-1.2,2.2-.5,5.2.6,7.4.7,1.5,1.8,2.8,3.2,3.5,1.2.6,2.6.4,3.5-.6Z"/>
    <path class="st0" d="M24.9,14.8c3.4-1.6,4.9-8.3,2.9-11.5-1-1.6-3-2-4.5-.9-3,2.3-4.7,8.3-2.2,11.4.9,1.1,2.4,1.6,3.7,1Z"/>
    <path class="st0" d="M34,14.6c-.6-1.2-1.9-1.8-3.2-1.4-3.3.9-5.7,6.7-3.6,9.8.6.8,1.4,1.2,2.4,1,3.3-.5,6-6.1,4.4-9.4Z"/>
  </g>
  <path class="st1" d="M26,30.8c-.4.4-.8.8-1.3,1.1-1.2.7-2.4,1.2-3.8,1.5-1.3-1.7-3-4.6-2.4-6.5.2-.7.7-1.3,1.3-1.5,1.3-.5,2.6.3,3.2,1.8.5-.2,1-.4,1.6-.4,1,0,1.9.6,2.2,1.4.4,1,0,1.9-.7,2.6Z"/>
</svg>
